<svg xmlns="http://www.w3.org/2000/svg" version="1.1" xmlns:xlink="http://www.w3.org/1999/xlink" xmlns:svgjs="http://svgjs.dev/svgjs" width="1440" height="560" preserveAspectRatio="none" viewBox="0 0 1440 560">
	<g mask="url(&quot;#SvgjsMask1022&quot;)" fill="none">
		<path d="M1560 560L0 560 L0 338.87Q55.44 274.31, 120 329.76Q171.84 309.6, 192 361.43Q218.45 267.88, 312 294.33Q377.11 239.44, 432 304.54Q518.16 270.71, 552 356.87Q593.6 326.47, 624 368.07Q635.74 307.81, 696 319.55Q738.98 290.53, 768 333.51Q809.18 302.69, 840 343.88Q874.84 258.72, 960 293.55Q1026.3 239.85, 1080 306.14Q1175.25 281.39, 1200 376.65Q1248.96 305.62, 1320 354.58Q1344.01 258.58, 1440 282.59Q1517.7 240.29, 1560 317.99z" fill="rgba(33, 33, 33, 0.48)">
		</path>
		<path d="M1464 560L0 560 L0 353.32Q68.11 349.43, 72 417.54Q102.7 376.24, 144 406.94Q173.52 364.46, 216 393.98Q300.5 358.48, 336 442.98Q341.02 376, 408 381.03Q437.5 338.52, 480 368.02Q572.48 340.5, 600 432.97Q618.9 331.87, 720 350.77Q794 304.77, 840 378.77Q893.32 360.08, 912 413.4Q962.88 392.28, 984 443.17Q1019.31 358.48, 1104 393.78Q1155.14 324.92, 1224 376.06Q1272.06 304.12, 1344 352.18Q1450.23 338.41, 1464 444.64z" fill="rgba(33, 33, 33, 0.58)">
		</path>
		<path d="M1512 560L0 560 L0 420.35Q83.25 431.6, 72 514.84Q67.04 437.88, 144 432.93Q197.67 366.6, 264 420.27Q355.35 391.62, 384 482.97Q428.83 407.8, 504 452.63Q529.68 406.31, 576 431.99Q606.14 390.13, 648 420.27Q733.41 385.68, 768 471.09Q843.14 426.24, 888 501.38Q918.63 412.01, 1008 442.64Q1083.42 398.06, 1128 473.49Q1202.97 428.47, 1248 503.44Q1255.45 438.89, 1320 446.34Q1388.75 395.09, 1440 463.84Q1501.96 453.8, 1512 515.77z" fill="rgba(247, 164, 29, 0.74)">
		</path>
		<path d="M1512 560L0 560 L0 540.88Q38.38 459.26, 120 497.64Q213.13 470.76, 240 563.89Q249.15 501.04, 312 510.19Q354.72 480.91, 384 523.63Q450.08 517.71, 456 583.79Q468.36 524.15, 528 536.51Q605.6 494.11, 648 571.71Q714.71 518.42, 768 585.13Q788.1 533.23, 840 553.33Q882 475.34, 960 517.34Q1003.31 488.65, 1032 531.97Q1106.64 486.62, 1152 561.26Q1176.87 466.13, 1272 490.99Q1344.59 443.58, 1392 516.17Q1471.3 475.46, 1512 554.76z" fill="rgba(247, 164, 29, 1)">
		</path>
        
	</g>
    
	<defs>
		<mask id="SvgjsMask1022">
			<rect width="1440" height="8000" fill="#ffffff">
			</rect>
		</mask>
	</defs>
</svg>
