<?xml version="1.0" encoding="utf-8"?>
<!-- Generator: Adobe Illustrator 25.4.0, SVG Export Plug-In . SVG Version: 6.00 Build 0)  -->
<svg version="1.1" id="Capa_1" xmlns="http://www.w3.org/2000/svg" xmlns:xlink="http://www.w3.org/1999/xlink" x="0px" y="0px"
	 viewBox="0 0 228.7 39.1" style="enable-background:new 0 0 228.7 39.1;" xml:space="preserve">
<style type="text/css">
	.st0{fill:#FFFFFF;}
	.st1{fill:#FBA400;}
</style>
<path class="st0" d="M71.2,24.2h-7.8l-2.2,11h-6.3l5.6-27.6c0.4-1.8,2.1-3.3,3.9-3.3h10.5c6.6,0,9.3,3.5,8,10
	C81.5,20.3,77.4,24.2,71.2,24.2z M70.8,18.6c3.2,0,5.1-1.5,5.7-4.5s-0.6-4.5-3.6-4.5h-6.5l-1.8,9H70.8z M89.1,18.1h-5.6
	c1.5-4.2,4.8-6.2,10-6.2c6.2,0,8.9,2,8.2,6.2l-1.5,7.6c-1.2,6.2-5.5,8.9-11.7,9.4c-5.5,0.4-8.7-2.1-7.7-7c1.2-5.4,5.4-6.8,11.2-7.4
	c2.5-0.3,3.8-1,4.1-2.2c0.1-1.3-0.9-1.9-3.3-1.9C90.8,16.6,89.6,17.1,89.1,18.1z M94.7,25.5l0.4-2.1c-1.4,0.6-3,1-4.8,1.4
	c-2.3,0.4-3.7,1.5-4,3.1c-0.2,1.8,0.5,2.6,2.3,2.6C91.8,30.5,94.1,28.7,94.7,25.5z M135.2,7.2l-2.7,13.3l9.2-8.5h7.3l-10.2,8.9
	l5.5,14.3H137l-4.9-13l-2.7,13h-6.1l6.2-31h3.1C134.5,4.2,135.5,5.6,135.2,7.2z M112.1,7.2l-2.7,13.3l9.2-8.5h7.3l-10.2,8.9
	l5.5,14.3H114l-4.9-13l-2.7,13h-6.1l6.2-31h3.1C111.4,4.2,112.5,5.6,112.1,7.2z M154.4,35.2c-6.7-0.2-9.3-4.1-7.8-11.8
	c1.5-7.6,5.7-11.4,12.5-11.5c7.1,0,9.6,4.4,7.4,13.1H152c-0.5,3.4,0.7,5.2,3.4,5.2c1.3,0,2.6-0.5,4-1.6c0.6-0.5,1.3-0.8,2.1-0.8h4.1
	C163.4,32.6,159.9,35.2,154.4,35.2z M152.9,21.1h8.4c0.3-3-0.8-4.5-3.2-4.5S154,18.1,152.9,21.1z M177.2,16.4h-0.6l-2.5,12.5
	c-0.2,1,0.3,1.6,1.5,1.6h1.9l-0.9,4.6c-2,0.2-4.2,0.2-6.4,0s-3.1-1.6-2.5-4.3L173,4.2h3.2c1.6,0,2.6,1.5,2.3,3.1l-1,4.7h3.7
	l-0.3,1.3C180.5,15.1,178.9,16.4,177.2,16.4z"/>
<path class="st1" d="M51.9,15.3h-3.2l-4,19.9h5.9l3.6-17C54.6,16.3,53.8,15.3,51.9,15.3z M57,8.5L57,8.5c0,2.4-1.9,4.3-4.3,4.3
	c-2,0-3.7-1.4-4.1-3.3c0-0.2-0.1-0.4-0.1-0.6c0-0.1,0-0.3,0-0.4c0-2.4,1.9-4.3,4.3-4.3c2.2,0,3.9,1.6,4.2,3.7C57,8.1,57,8.3,57,8.5z
	"/>
</svg>
